# xmcd CD database file
#
# Track frame offsets:
#	150
#	17560
#	34147
#	53150
#	69794
#	84596
#	101073
#	116682
#	132054
#	145551
#	164724
#	181172
#	196166
#	214266
#	228878
#	247291
#	265118
#	288931
#	307914
#
# Disc length: 4349 seconds
#
# Revision: 2
# Processed by: cddbd v1.5.2PL0 Copyright (c) Steve Scherf et al.
# Submitted via: CDex 1.50Beta7
#
DISCID=0510fb13
DTITLE=Cliff Richard - Private Collection 1979-1988
DYEAR=1988
DGENRE=Pop
TTITLE0=Some People
TTITLE1=Wired For Sound
TTITLE2=All I Ask Of You
TTITLE3=Carrie
TTITLE4=True Love Ways
TTITLE5=Dreamin'
TTITLE6=She Means Nothing To Me
TTITLE7=A Little In Love
TTITLE8=Daddy's Home
TTITLE9=We Don't Talk Any More
TTITLE10=Never Say Die
TTITLE11=The Only Way Out
TTITLE12=Suddenly
TTITLE13=Plese Don't Fall In Love
TTITLE14=Little Town
TTITLE15=My Pretty One
TTITLE16=Ocean Deep
TTITLE17=She's So Beautiful
TTITLE18=Mistletoe And Wine
EXTD=YEAR: 1988
EXTT0=
EXTT1=
EXTT2=
EXTT3=
EXTT4=
EXTT5=
EXTT6=
EXTT7=
EXTT8=
EXTT9=
EXTT10=
EXTT11=
EXTT12=
EXTT13=
EXTT14=
EXTT15=
EXTT16=
EXTT17=
EXTT18=
PLAYORDER=
